<svg width="24" height="26" viewBox="0 0 24 26" fill="none" xmlns="http://www.w3.org/2000/svg">
<path fill-rule="evenodd" clip-rule="evenodd" d="M6.1199 17.2702C6.13533 17.1079 6.08082 16.9403 5.95675 16.8162L3.97345 14.8329C3.97345 14.8329 3.97344 14.8329 3.97344 14.8329L1.12507 11.9845C0.717707 11.5772 0.717707 10.9167 1.12507 10.5093C1.44719 10.1872 1.92758 10.1198 2.31594 10.3071C2.41866 10.3567 2.51495 10.4241 2.60015 10.5093L7.25695 15.1661C7.29349 15.2026 7.33384 15.233 7.37672 15.2573C7.39765 15.2691 7.41919 15.2795 7.44118 15.2884C7.64232 15.37 7.88149 15.3293 8.04463 15.1661C8.18086 15.0299 8.23176 14.8407 8.19733 14.6648L8.19723 14.6647C8.17669 14.5599 8.12579 14.4598 8.04455 14.3785L4.35938 10.6933C4.35937 10.6933 4.35936 10.6933 4.35935 10.6933L2.10643 8.44035C1.70943 8.04335 1.70943 7.39968 2.10643 7.00268C2.422 6.68711 2.89343 6.62238 3.27294 6.8085C3.37084 6.85652 3.46261 6.92123 3.54402 7.00264L9.53847 12.9971C9.57434 13.033 9.61382 13.063 9.65574 13.0872C9.67839 13.1003 9.70174 13.1117 9.72563 13.1214C9.92996 13.2043 10.1729 13.1629 10.3387 12.9971C10.5596 12.7762 10.5596 12.418 10.3387 12.197L5.6631 7.52149C5.57813 7.43652 5.51088 7.34053 5.46135 7.23812C5.46126 7.23796 5.46116 7.2378 5.46106 7.23764C5.39994 7.11111 5.36587 6.97479 5.35886 6.83735C5.34434 6.55286 5.44573 6.26356 5.66302 6.04627C6.07037 5.63892 6.73083 5.63892 7.13819 6.04627L15.0592 13.9673C15.2691 14.1771 15.6093 14.1771 15.8191 13.9673C15.9809 13.8056 16.0225 13.5592 15.9229 13.3533L14.1061 9.59861C13.9156 9.20506 13.9817 8.7515 14.2421 8.43119L14.2422 8.43126C14.3298 8.32352 14.4393 8.23086 14.5685 8.16062C14.8894 7.98622 15.2594 7.98879 15.5658 8.13593C15.7606 8.2295 15.9296 8.3815 16.0438 8.58361L19.2334 14.2278C20.7228 16.8633 20.2756 20.1681 18.1394 22.313L16.9543 23.5029C15.2685 25.1956 12.8542 25.7206 10.7164 25.0765C10.1492 24.9056 9.60151 24.6524 9.09202 24.3168C8.74495 24.0882 8.41563 23.8214 8.10999 23.5164L0.807402 16.2284C0.396601 15.8184 0.397672 15.1525 0.809789 14.7439C1.11414 14.4421 1.55729 14.3654 1.93216 14.5135C1.9732 14.5297 2.01342 14.5486 2.05255 14.5702C2.13673 14.6166 2.21587 14.6756 2.28725 14.7469L5.15666 17.6163C5.19345 17.6531 5.23402 17.6838 5.27712 17.7083C5.29945 17.721 5.32246 17.7321 5.34596 17.7415C5.55263 17.8244 5.79811 17.7802 5.96304 17.6101C6.05597 17.5142 6.10823 17.3938 6.11999 17.2703L6.1199 17.2702ZM8.96295 5.8909L12.6355 9.56343C12.4975 8.79755 12.728 8.00899 13.2498 7.43834L10.7796 4.96691C10.3611 4.54814 9.68225 4.54814 9.2637 4.96691C9.01213 5.21861 8.91188 5.5643 8.96295 5.8909ZM19.5081 11.868L20.4524 13.5389C22.2507 16.7211 21.7108 20.7112 19.1315 23.301L18.3103 24.1256C19.4914 23.7938 20.6058 23.162 21.5331 22.2304C24.0499 19.7021 24.5768 15.8078 22.8223 12.7016L19.9261 7.57408C19.6243 7.03966 18.9496 6.84618 18.4104 7.13945C17.8833 7.42611 17.6743 8.07615 17.9355 8.61626L19.5081 11.868Z" fill="white"/>
<path d="M10.9665 0.722018L9.84339 0.808837C9.73763 0.817012 9.66988 0.925105 9.70863 1.02385L10.5811 3.24708C10.6413 3.40065 10.8671 3.37046 10.8849 3.20645L11.1356 0.896403C11.1462 0.798164 11.065 0.714402 10.9665 0.722018Z" fill="white"/>
<path d="M14.6637 0.795466L13.5888 0.458293C13.4876 0.426543 13.3845 0.501681 13.3838 0.607754L13.3667 2.99598C13.3655 3.16095 13.5863 3.21691 13.6638 3.07128L14.7557 1.02023C14.8022 0.933003 14.7579 0.825043 14.6637 0.795466Z" fill="white"/>
<path d="M17.7536 2.86247L16.8751 2.15744C16.7924 2.09105 16.669 2.12354 16.6297 2.22207L15.7451 4.44048C15.684 4.59372 15.8693 4.72615 15.9945 4.6187L17.7577 3.10533C17.8326 3.04097 17.8307 2.92432 17.7536 2.86247Z" fill="white"/>
</svg>
