<svg width="22" height="16" viewBox="0 0 22 16" fill="none" xmlns="http://www.w3.org/2000/svg">
<path d="M0.441406 12.9284C0.441406 14.2484 1.49741 15.3924 2.90541 15.3924H19.1854C20.5054 15.3924 21.6494 14.3364 21.6494 12.9284V12.1364H0.529406V12.9284H0.441406ZM19.0974 0.608398H2.90541C1.58541 0.608398 0.441406 1.6644 0.441406 3.0724V10.3764H21.5614V3.0724C21.5614 1.7524 20.5054 0.608398 19.0974 0.608398ZM19.4494 6.3284C19.4494 6.6804 19.1854 6.9444 18.8334 6.9444H14.7854C14.4334 6.9444 14.1694 6.6804 14.1694 6.3284V3.6004C14.1694 3.2484 14.4334 2.9844 14.7854 2.9844H18.8334C19.1854 2.9844 19.4494 3.2484 19.4494 3.6004V6.3284Z" fill="grey"/>
</svg>
