<svg width="15" height="15" viewBox="0 0 15 15" fill="none" xmlns="http://www.w3.org/2000/svg">
<path d="M6.875 1.25H5.625C2.5 1.25 1.25 2.5 1.25 5.625V9.375C1.25 12.5 2.5 13.75 5.625 13.75H9.375C12.5 13.75 13.75 12.5 13.75 9.375V8.125" stroke="white" stroke-width="1.5" stroke-linecap="round" stroke-linejoin="round"/>
<path d="M10.025 1.8875L5.09999 6.8125C4.91249 7 4.72499 7.36875 4.68749 7.6375L4.41874 9.51875C4.31874 10.2 4.79999 10.675 5.48124 10.5812L7.36249 10.3125C7.62499 10.275 7.99374 10.0875 8.18749 9.9L13.1125 4.975C13.9625 4.125 14.3625 3.1375 13.1125 1.8875C11.8625 0.637498 10.875 1.0375 10.025 1.8875Z" stroke="white" stroke-width="1.5" stroke-miterlimit="10" stroke-linecap="round" stroke-linejoin="round"/>
<path d="M9.31873 2.59375C9.73748 4.0875 10.9062 5.25625 12.4062 5.68125" stroke="white" stroke-width="1.5" stroke-miterlimit="10" stroke-linecap="round" stroke-linejoin="round"/>
</svg>
