<svg width="22" height="22" viewBox="0 0 22 22" fill="none" xmlns="http://www.w3.org/2000/svg">
<g opacity="0.3" clip-path="url(#clip0_580_4192)">
<path d="M22 7.00391V5.84375C22 4.51481 20.9227 3.4375 19.5938 3.4375H2.40625C1.07731 3.4375 0 4.51481 0 5.84375V7.00391C0 7.06089 0.0226353 7.11553 0.0629263 7.15582C0.103217 7.19612 0.157864 7.21875 0.214844 7.21875H21.7852C21.8421 7.21875 21.8968 7.19612 21.9371 7.15582C21.9774 7.11553 22 7.06089 22 7.00391ZM0 8.80859V16.1562C0 17.4852 1.07731 18.5625 2.40625 18.5625H19.5938C20.9227 18.5625 22 17.4852 22 16.1562V8.80859C22 8.75161 21.9774 8.69697 21.9371 8.65668C21.8968 8.61638 21.8421 8.59375 21.7852 8.59375H0.214844C0.157864 8.59375 0.103217 8.61638 0.0629263 8.65668C0.0226353 8.69697 0 8.75161 0 8.80859ZM5.5 14.4375C5.5 14.8172 5.19217 15.125 4.8125 15.125H4.125C3.74533 15.125 3.4375 14.8172 3.4375 14.4375V13.75C3.4375 13.3703 3.74533 13.0625 4.125 13.0625H4.8125C5.19217 13.0625 5.5 13.3703 5.5 13.75V14.4375Z" fill="white"/>
<rect x="11" y="12" width="8" height="4" rx="1" fill="#0D0D0D"/>
</g>
<defs>
<clipPath id="clip0_580_4192">
<rect width="22" height="22" fill="white"/>
</clipPath>
</defs>
</svg>
