<svg width="18" height="18" viewBox="0 0 18 18" fill="none" xmlns="http://www.w3.org/2000/svg">
<path d="M10.4622 13.8544C10.4622 14.2899 10.1766 14.8611 9.81251 15.0824L8.80585 15.7321C7.87056 16.3104 6.57116 15.6607 6.57116 14.5041V10.6844C6.57116 10.1775 6.28558 9.52784 5.99286 9.17086L3.25124 6.28647C2.88713 5.92235 2.60156 5.2798 2.60156 4.84429V3.1879C2.60156 2.32401 3.25128 1.67432 4.04377 1.67432H13.5679C14.3604 1.67432 15.0101 2.32401 15.0101 3.1165V4.70149C15.0101 5.27979 14.646 6.00089 14.289 6.35787" stroke="white" stroke-width="1.46871" stroke-miterlimit="10" stroke-linecap="round" stroke-linejoin="round"/>
<path d="M11.7124 12.0337C12.9742 12.0337 13.9971 11.0108 13.9971 9.74903C13.9971 8.48724 12.9742 7.46436 11.7124 7.46436C10.4506 7.46436 9.42773 8.48724 9.42773 9.74903C9.42773 11.0108 10.4506 12.0337 11.7124 12.0337Z" stroke="white" stroke-width="1.46871" stroke-linecap="round" stroke-linejoin="round"/>
<path d="M14.4249 12.462L13.7109 11.748" stroke="white" stroke-width="1.46871" stroke-linecap="round" stroke-linejoin="round"/>
</svg>
