<svg width="30" height="30" viewBox="0 0 30 30" fill="none" xmlns="http://www.w3.org/2000/svg">
<path d="M15 2.5C11.725 2.5 9.0625 5.1625 9.0625 8.4375C9.0625 11.65 11.575 14.25 14.85 14.3625C14.95 14.35 15.05 14.35 15.125 14.3625C15.15 14.3625 15.1625 14.3625 15.1875 14.3625C15.2 14.3625 15.2 14.3625 15.2125 14.3625C18.4125 14.25 20.925 11.65 20.9375 8.4375C20.9375 5.1625 18.275 2.5 15 2.5Z" fill="#808080"/>
<path d="M21.3492 17.6876C17.8617 15.3626 12.1742 15.3626 8.66172 17.6876C7.07422 18.7501 6.19922 20.1876 6.19922 21.7251C6.19922 23.2626 7.07422 24.6876 8.64922 25.7376C10.3992 26.9126 12.6992 27.5001 14.9992 27.5001C17.2992 27.5001 19.5992 26.9126 21.3492 25.7376C22.9242 24.6751 23.7992 23.2501 23.7992 21.7001C23.7867 20.1626 22.9242 18.7376 21.3492 17.6876Z" fill="#808080"/>
</svg>
