<svg width="15" height="17" viewBox="0 0 15 17" fill="none" xmlns="http://www.w3.org/2000/svg">
<g opacity="0.3">
<path d="M7.45318 3.92052C8.50014 4.00094 9.5471 3.438 10.2014 2.72427C10.8449 1.99042 11.2702 1.00526 11.1612 0C10.2341 0.0402105 9.08905 0.562947 8.4347 1.29679C7.83488 1.93011 7.32231 2.95547 7.45318 3.92052Z" fill="white"/>
<path d="M7.61676 4.90568C8.33654 4.90568 9.63434 4.03111 11.1503 4.11153C11.7392 4.15174 13.4404 4.31257 14.5311 5.80036C14.4438 5.86068 12.5134 6.88605 12.5353 9.0373C12.5571 11.6107 14.9782 12.4652 15 12.4854C14.9782 12.5457 14.6183 13.7017 13.7349 14.8879C12.9606 15.9335 12.1644 16.9588 10.8994 16.9789C9.67796 16.999 9.27445 16.3054 7.8676 16.3054C6.47165 16.3054 6.01361 16.9588 4.85759 16.999C3.63614 17.0392 2.70915 15.8932 1.93484 14.8477C0.353496 12.7367 -0.85705 8.89661 0.778821 6.303C1.57494 5.00621 3.02542 4.19195 4.58494 4.17184C5.78459 4.15174 6.88608 4.90568 7.61676 4.90568Z" fill="white"/>
</g>
</svg>
