<svg width="22" height="16" viewBox="0 0 22 16" fill="none" xmlns="http://www.w3.org/2000/svg">
<path d="M22 4.00391V2.84375C22 1.51481 20.9227 0.4375 19.5938 0.4375H2.40625C1.07731 0.4375 0 1.51481 0 2.84375V4.00391C0 4.06089 0.0226353 4.11553 0.0629263 4.15582C0.103217 4.19612 0.157864 4.21875 0.214844 4.21875H21.7852C21.8421 4.21875 21.8968 4.19612 21.9371 4.15582C21.9774 4.11553 22 4.06089 22 4.00391ZM0 5.80859V13.1562C0 14.4852 1.07731 15.5625 2.40625 15.5625H19.5938C20.9227 15.5625 22 14.4852 22 13.1562V5.80859C22 5.75161 21.9774 5.69697 21.9371 5.65668C21.8968 5.61638 21.8421 5.59375 21.7852 5.59375H0.214844C0.157864 5.59375 0.103217 5.61638 0.0629263 5.65668C0.0226353 5.69697 0 5.75161 0 5.80859ZM5.5 11.4375C5.5 11.8172 5.19217 12.125 4.8125 12.125H4.125C3.74533 12.125 3.4375 11.8172 3.4375 11.4375V10.75C3.4375 10.3703 3.74533 10.0625 4.125 10.0625H4.8125C5.19217 10.0625 5.5 10.3703 5.5 10.75V11.4375Z" fill="white" fill-opacity="0.3"/>
</svg>
