<svg width="29" height="29" viewBox="0 0 29 29" fill="none" xmlns="http://www.w3.org/2000/svg">
<g opacity="1">
<path d="M21.75 8.15625H19.9375V7.25C19.9375 5.80789 19.3646 4.42484 18.3449 3.40511C17.3252 2.38538 15.9421 1.8125 14.5 1.8125C13.0579 1.8125 11.6748 2.38538 10.6551 3.40511C9.63538 4.42484 9.0625 5.80789 9.0625 7.25V8.15625H7.25C6.7693 8.15625 6.30828 8.34721 5.96837 8.68712C5.62846 9.02703 5.4375 9.48805 5.4375 9.96875V25.375C5.4375 25.8557 5.62846 26.3167 5.96837 26.6566C6.30828 26.9965 6.7693 27.1875 7.25 27.1875H21.75C22.2307 27.1875 22.6917 26.9965 23.0316 26.6566C23.3715 26.3167 23.5625 25.8557 23.5625 25.375V9.96875C23.5625 9.48805 23.3715 9.02703 23.0316 8.68712C22.6917 8.34721 22.2307 8.15625 21.75 8.15625ZM10.875 7.25C10.875 6.28859 11.2569 5.36656 11.9367 4.68674C12.6166 4.00692 13.5386 3.625 14.5 3.625C15.4614 3.625 16.3834 4.00692 17.0633 4.68674C17.7431 5.36656 18.125 6.28859 18.125 7.25V8.15625H10.875V7.25ZM19.2216 16.0497L13.7841 21.4872C13.6998 21.5721 13.5996 21.6395 13.4891 21.6856C13.3787 21.7316 13.2603 21.7553 13.1406 21.7553C13.021 21.7553 12.9025 21.7316 12.7921 21.6856C12.6817 21.6395 12.5814 21.5721 12.4972 21.4872L9.77844 18.7684C9.69394 18.6839 9.62691 18.5836 9.58118 18.4732C9.53545 18.3628 9.51192 18.2445 9.51192 18.125C9.51192 18.0055 9.53545 17.8872 9.58118 17.7768C9.62691 17.6664 9.69394 17.5661 9.77844 17.4816C9.94909 17.3109 10.1805 17.215 10.4219 17.215C10.5414 17.215 10.6597 17.2386 10.7701 17.2843C10.8805 17.33 10.9808 17.3971 11.0653 17.4816L13.1406 19.5659L17.9347 14.7628C18.1053 14.5922 18.3368 14.4963 18.5781 14.4963C18.8195 14.4963 19.0509 14.5922 19.2216 14.7628C19.3922 14.9335 19.4881 15.1649 19.4881 15.4062C19.4881 15.6476 19.3922 15.879 19.2216 16.0497Z" fill="white"/>
</g>
</svg>
