<svg width="19" height="19" viewBox="0 0 19 19" fill="none" xmlns="http://www.w3.org/2000/svg">
<g opacity="0.3" clip-path="url(#clip0_580_4296)">
<path fill-rule="evenodd" clip-rule="evenodd" d="M2.59805 2.5817H5.20027V1.15039C5.20027 0.945992 5.36697 0.779297 5.57136 0.779297H6.40781C6.61221 0.779297 6.7789 0.945992 6.7789 1.15039V2.5817H12.225V1.15039C12.225 0.945992 12.3917 0.779297 12.5961 0.779297H13.4326C13.637 0.779297 13.8037 0.945992 13.8037 1.15039V2.5817H16.4059C17.4065 2.5817 18.2227 3.39785 18.2227 4.3985V5.56258H0.78125V4.3985C0.78125 3.39785 1.5974 2.5817 2.59805 2.5817ZM18.2227 6.45325V16.4039C18.2227 17.4046 17.4065 18.2207 16.4059 18.2207H2.59805C1.5974 18.2207 0.78125 17.4046 0.78125 16.4039V6.45325H18.2227ZM3.68606 8.62477V10.8785H5.93971V8.62477H3.68606ZM3.68606 13.3502V15.6039H5.93971V13.3502H3.68606ZM13.0642 13.3502V15.6039H15.3179V13.3502H13.0642ZM8.37513 13.3502V15.6039H10.6288V13.3502H8.37513ZM13.0642 8.62477V10.8785H15.3179V8.62477H13.0642ZM8.37513 8.62477V10.8785H10.6288V8.62477H8.37513Z" fill="white"/>
</g>
<defs>
<clipPath id="clip0_580_4296">
<rect width="19" height="19" fill="white"/>
</clipPath>
</defs>
</svg>
