<svg width="27" height="27" viewBox="0 0 27 27" fill="none" xmlns="http://www.w3.org/2000/svg">
<g opacity="1" clip-path="url(#clip0_580_4325)">
<path d="M16.1059 13.3587C19.7889 13.3587 22.7847 10.3623 22.7847 6.67934C22.7847 2.99637 19.7889 0 16.1059 0C12.423 0 9.42661 2.99637 9.42661 6.67934C9.42661 10.3623 12.423 13.3587 16.1059 13.3587ZM15.3149 2.75326V2.57186C15.3149 2.13469 15.6688 1.78084 16.1059 1.78084C16.5426 1.78084 16.897 2.13469 16.897 2.57186V2.75432C17.8383 2.95629 18.5465 3.79477 18.5465 4.79566C18.5465 5.2323 18.1921 5.58668 17.7555 5.58668C17.3183 5.58668 16.9645 5.2323 16.9645 4.79566C16.9645 4.5167 16.7372 4.28941 16.4582 4.28941H15.7489C15.47 4.28941 15.2427 4.5167 15.2427 4.79566C15.2428 4.87474 15.2614 4.9527 15.297 5.0233C15.3326 5.09389 15.3843 5.15518 15.4478 5.20225L16.1059 5.68951L17.7048 6.87287C18.2301 7.26152 18.5465 7.88326 18.5507 8.53717V8.54455C18.5544 9.10248 18.3408 9.62877 17.9485 10.0259C17.6574 10.3206 17.2935 10.5184 16.897 10.6017V10.7868C16.897 11.224 16.5426 11.5778 16.1059 11.5778C15.6688 11.5778 15.3149 11.224 15.3149 10.7868V10.6044C14.9289 10.5221 14.574 10.3322 14.2871 10.0485C13.89 9.65672 13.6696 9.13359 13.6664 8.57566C13.6638 8.13902 14.0156 7.78254 14.4522 7.7799H14.4575C14.892 7.7799 15.2458 8.13111 15.2485 8.56617C15.2488 8.63265 15.2621 8.69842 15.2879 8.75971C15.3136 8.821 15.3512 8.87661 15.3985 8.92334C15.4458 8.97008 15.5018 9.00703 15.5634 9.03207C15.625 9.05711 15.6909 9.06974 15.7574 9.06926C16.1944 9.06662 16.0316 9.06757 16.4656 9.06504C16.7463 9.06282 16.9708 8.83496 16.9687 8.5551V8.54771C16.9676 8.38951 16.8912 8.23869 16.7635 8.1443L16.1059 7.65756L14.5065 6.4742C13.9771 6.08186 13.6606 5.45432 13.6606 4.79566C13.6606 3.79266 14.371 2.95365 15.3149 2.75326ZM5.28374 17.1593C5.08098 16.8078 4.63057 16.6855 4.27688 16.8896L0.556051 19.0374C0.203732 19.2414 0.0828652 19.692 0.286262 20.0448L4.08915 26.6314C4.2927 26.9836 4.74305 27.1046 5.09601 26.9012L8.81684 24.7528C9.16968 24.5493 9.29008 24.0987 9.08663 23.7459L5.28374 17.1593ZM26.6037 15.8446C26.2457 15.3473 25.5527 15.235 25.056 15.593C23.5488 16.6788 20.6548 18.7639 20.4248 18.9301C20.3199 19.0196 20.2085 19.1012 20.0916 19.1742C19.6365 19.4606 19.1086 19.6135 18.5575 19.6135H14.7685C14.3319 19.6135 13.9775 19.2596 13.9775 18.8225C13.9775 18.3848 14.3324 18.0315 14.7685 18.0315H18.8207C19.416 18.0315 19.8927 17.5358 19.868 16.9393C19.8448 16.3735 19.3617 15.9347 18.7953 15.9347H15.7109C15.5021 15.7138 15.2732 15.5113 15.028 15.3304C14.1848 14.7087 13.1427 14.3411 12.0148 14.3411C10.0093 14.3411 8.0138 15.6046 7.1864 17.2911L10.4222 22.8952H16.4919C17.6837 22.8952 18.8576 22.5904 19.8906 21.996C20.2487 21.7904 20.6321 21.543 21.0476 21.2446C22.7889 19.9937 26.349 17.395 26.3517 17.3934C26.8495 17.0358 26.9623 16.3419 26.6037 15.8446Z" fill="white"/>
</g>
<defs>
<clipPath id="clip0_580_4325">
<rect width="27" height="27" fill="white"/>
</clipPath>
</defs>
</svg>
