<svg width="15" height="18" viewBox="0 0 15 18" fill="none" xmlns="http://www.w3.org/2000/svg">
<g opacity="0.3">
<path d="M4.78338 16.9514L5.07527 15.0321L4.42507 15.0165H1.32031L3.47796 0.854059C3.48438 0.810786 3.50562 0.771344 3.53778 0.742922C3.56995 0.7145 3.61092 0.69899 3.65321 0.699221H8.88827C10.6262 0.699221 11.8256 1.0736 12.4518 1.81255C12.7454 2.1592 12.9323 2.52145 13.0227 2.9201C13.1176 3.33839 13.1193 3.83815 13.0266 4.44768L13.0199 4.49217V4.88273L13.3135 5.0549C13.5376 5.17243 13.7391 5.33143 13.9079 5.52403C14.159 5.82042 14.3215 6.19711 14.3901 6.64371C14.461 7.10303 14.4375 7.64958 14.3215 8.26835C14.1875 8.98015 13.971 9.60007 13.6785 10.1073C13.4205 10.5618 13.0735 10.9554 12.66 11.2628C12.2715 11.5483 11.81 11.7649 11.2881 11.9036C10.7825 12.0399 10.206 12.1087 9.57362 12.1087H9.1662C8.87487 12.1087 8.59191 12.2173 8.36978 12.412C8.14797 12.6088 8.00082 12.8807 7.95455 13.1792L7.92385 13.352L7.40816 16.7347L7.38472 16.859C7.37858 16.8982 7.36798 16.9179 7.35235 16.9312C7.33721 16.944 7.31833 16.9511 7.29877 16.9514H4.78338Z" fill="white"/>
<path d="M13.5892 4.53711C13.5736 4.64053 13.5557 4.74626 13.5356 4.85487C12.8452 8.52418 10.4833 9.79177 7.46675 9.79177H5.93084C5.56193 9.79177 5.25106 10.0691 5.19357 10.4458L4.4072 15.6086L4.18451 17.072C4.17564 17.1301 4.17903 17.1894 4.19444 17.246C4.20985 17.3026 4.23692 17.355 4.27379 17.3997C4.31065 17.4444 4.35643 17.4803 4.40798 17.5049C4.45953 17.5295 4.51563 17.5423 4.5724 17.5423H7.29653C7.61911 17.5423 7.89315 17.2997 7.94393 16.9703L7.97072 16.8271L8.48362 13.4576L8.51655 13.2727C8.56678 12.9423 8.84137 12.6996 9.16396 12.6996H9.57138C12.2107 12.6996 14.2768 11.5903 14.8807 8.38032C15.1329 7.03935 15.0023 5.91967 14.3348 5.13219C14.1233 4.88859 13.8706 4.68694 13.5892 4.53711Z" fill="white"/>
<path d="M12.8687 4.23915C12.6483 4.17314 12.4241 4.12161 12.1973 4.08489C11.7494 4.01362 11.2966 3.97942 10.8434 3.98263H6.74016C6.584 3.9825 6.43295 4.04021 6.31432 4.14533C6.19569 4.25044 6.11729 4.39602 6.09331 4.55576L5.22043 10.279L5.19531 10.4459C5.22251 10.2637 5.31179 10.0976 5.44702 9.97769C5.58225 9.85773 5.75449 9.79183 5.93257 9.79193H7.46849C10.4851 9.79193 12.847 8.52376 13.5374 4.85503C13.558 4.74642 13.5753 4.64069 13.5909 4.53727C13.4088 4.43838 13.2189 4.35547 13.0233 4.28941C12.9721 4.2718 12.9205 4.25505 12.8687 4.23915Z" fill="#9A9A9A"/>
<path d="M6.09217 4.55554C6.11595 4.39576 6.1943 4.25011 6.31299 4.14505C6.43169 4.03998 6.58285 3.98248 6.73902 3.98298H10.8422C11.3283 3.98298 11.7821 4.01592 12.1962 4.08525C12.4764 4.13084 12.7528 4.19903 13.0228 4.28919C13.2265 4.3591 13.4157 4.44172 13.5904 4.53705C13.7957 3.18106 13.5887 2.25782 12.8804 1.42181C12.0997 0.501449 10.6904 0.107422 8.88718 0.107422H3.65212C3.28377 0.107422 2.96955 0.384743 2.91262 0.762015L0.732093 15.0701C0.721937 15.1365 0.725801 15.2044 0.74342 15.2691C0.761039 15.3339 0.791995 15.3939 0.834159 15.4451C0.876322 15.4962 0.928692 15.5373 0.987667 15.5655C1.04664 15.5938 1.11082 15.6084 1.17579 15.6085H4.4078L5.21929 10.2788L6.09217 4.55554Z" fill="white"/>
</g>
</svg>
