<svg width="22" height="22" viewBox="0 0 22 22" fill="none" xmlns="http://www.w3.org/2000/svg">
<g opacity="1" clip-path="url(#clip0_580_4340)">
<path d="M21.6307 10.0146L18.2965 6.6804V2.82883C18.2965 2.13241 17.7322 1.56802 17.0347 1.56802C16.3389 1.56802 15.7745 2.13241 15.7745 2.82883V4.15847L13.292 1.6758C12.0645 0.449056 9.93048 0.451232 8.70587 1.67802L0.369103 10.0146C-0.123034 10.5077 -0.123034 11.3056 0.369103 11.798C0.861463 12.291 1.66091 12.291 2.15309 11.798L10.4891 3.46117C10.7606 3.19103 11.2393 3.19103 11.5094 3.46037L19.8468 11.798C19.9638 11.9152 20.1028 12.0081 20.2559 12.0714C20.4089 12.1348 20.5729 12.1673 20.7385 12.1671C21.0614 12.1671 21.3843 12.0444 21.6308 11.798C22.1231 11.3057 22.1231 10.5078 21.6307 10.0146Z" fill="white"/>
<path d="M11.4372 5.85441C11.195 5.61233 10.8028 5.61233 10.5613 5.85441L3.22828 13.1853C3.11209 13.3017 3.04685 13.4594 3.04688 13.6239V18.9707C3.04688 20.2254 4.06419 21.2427 5.31883 21.2427H8.94942V15.6201H13.0483V21.2427H16.6789C17.9335 21.2427 18.9508 20.2254 18.9508 18.9708V13.6239C18.9508 13.459 18.8858 13.301 18.7694 13.1853L11.4372 5.85441Z" fill="white"/>
</g>
<defs>
<clipPath id="clip0_580_4340">
<rect width="22" height="22" fill="white"/>
</clipPath>
</defs>
</svg>
