<svg width="22" height="23" viewBox="0 0 22 23" fill="none" xmlns="http://www.w3.org/2000/svg">
<path d="M18.6044 7.75546L11.7065 11.7509C11.4287 11.9121 11.0794 11.9121 10.7927 11.7509L3.89479 7.75546C3.40208 7.46879 3.27667 6.79691 3.65292 6.37587C3.91271 6.08025 4.20833 5.83837 4.52187 5.66816L9.37729 2.98066C10.4165 2.39837 12.1006 2.39837 13.1398 2.98066L17.9952 5.66816C18.3087 5.83837 18.6044 6.08921 18.8642 6.37587C19.2225 6.79691 19.0971 7.46879 18.6044 7.75546Z" fill="white"/>
<path d="M10.7397 13.417V19.5266C10.7397 20.2074 10.0499 20.6553 9.44075 20.3597C7.59534 19.4549 4.4868 17.7618 4.4868 17.7618C3.39388 17.1437 2.49805 15.5849 2.49805 14.3039V9.68137C2.49805 8.97366 3.24159 8.52575 3.85076 8.87512L10.2918 12.6107C10.5605 12.781 10.7397 13.0855 10.7397 13.417Z" fill="white"/>
<path d="M11.7617 13.417V19.5266C11.7617 20.2074 12.4515 20.6553 13.0607 20.3597C14.9061 19.4549 18.0146 17.7618 18.0146 17.7618C19.1076 17.1437 20.0034 15.5849 20.0034 14.3039V9.68137C20.0034 8.97366 19.2598 8.52575 18.6507 8.87512L12.2096 12.6107C11.9409 12.781 11.7617 13.0855 11.7617 13.417Z" fill="white"/>
</svg>
