<svg width="23" height="23" viewBox="0 0 23 23" fill="none" xmlns="http://www.w3.org/2000/svg">
<g opacity="1" clip-path="url(#clip0_580_4332)">
<path d="M17.2488 13.417C14.6032 13.417 12.457 15.562 12.457 18.2085C12.457 20.8543 14.6032 23.0002 17.2488 23.0002C19.8944 23.0002 22.0406 20.8543 22.0406 18.2085C22.0406 15.562 19.8944 13.417 17.2488 13.417ZM20.1238 18.9272H16.53V15.3335H17.9675V17.4897H20.1238V18.9272Z" fill="white"/>
<path d="M16.2906 0H2.87379C1.82009 0 0.957031 0.862781 0.957031 1.91676V19.1668C0.957031 20.2205 1.82009 21.0832 2.87379 21.0832H10.5406V18.2082C10.5406 14.5098 13.5504 11.5 17.2488 11.5H18.207V1.91676C18.207 0.862781 17.3442 0 16.2906 0ZM3.83203 2.875H13.4156V4.79176H3.83203V2.875ZM7.66555 16.2918H3.83203V14.375H7.66555V16.2918ZM9.58203 12.4582H3.83203V10.5418H9.58203V12.4582ZM15.332 8.625H3.83203V6.70824H15.332V8.625Z" fill="white"/>
</g>
<defs>
<clipPath id="clip0_580_4332">
<rect width="23" height="23" fill="white"/>
</clipPath>
</defs>
</svg>
