<svg width="30" height="30" viewBox="0 0 30 30" fill="none" xmlns="http://www.w3.org/2000/svg">
<path d="M14.375 26.25C15.9344 26.25 17.4786 25.9428 18.9194 25.3461C20.3601 24.7493 21.6692 23.8746 22.7719 22.7719C23.8746 21.6692 24.7493 20.3601 25.3461 18.9194C25.9428 17.4786 26.25 15.9344 26.25 14.375C26.25 12.8156 25.9428 11.2714 25.3461 9.83063C24.7493 8.38989 23.8746 7.0808 22.7719 5.97811C21.6692 4.87541 20.3601 4.00071 18.9194 3.40393C17.4786 2.80716 15.9344 2.5 14.375 2.5C11.2256 2.5 8.2051 3.75111 5.97811 5.97811C3.75111 8.2051 2.5 11.2256 2.5 14.375C2.5 17.5244 3.75111 20.5449 5.97811 22.7719C8.2051 24.9989 11.2256 26.25 14.375 26.25ZM26.625 27.4988C26.4 27.4988 26.175 27.4112 26.0125 27.2487L23.6875 24.9237C23.5252 24.7587 23.4342 24.5365 23.4342 24.305C23.4342 24.0735 23.5252 23.8513 23.6875 23.6862C24.025 23.3487 24.575 23.3487 24.925 23.6862L27.25 26.0112C27.5875 26.3487 27.5875 26.8988 27.25 27.2487C27.075 27.4112 26.85 27.4988 26.625 27.4988Z" fill="grey" fill-opacity="1"/>
</svg>
