<svg width="31" height="31" viewBox="0 0 31 31" fill="none" xmlns="http://www.w3.org/2000/svg">
<path d="M19.4145 4.87402H2.58598C2.08998 4.87402 1.70026 5.26374 1.70026 5.75974V16.3883C1.70026 16.8755 2.08998 17.274 2.58598 17.274H19.4145C19.9017 17.274 20.3003 16.8755 20.3003 16.3883V5.75974C20.3003 5.26374 19.9017 4.87402 19.4145 4.87402ZM1.69141 21.7026C1.69141 22.1897 2.08998 22.5883 2.57712 22.5883H3.53369C3.90569 20.7372 5.42912 19.2846 7.32455 19.0455H2.58598C2.26712 19.0455 1.97483 18.9923 1.69141 18.886V21.7026Z" fill="white"/>
<path d="M27.3246 22.5884H28.4228C28.91 22.5884 29.3086 22.1899 29.3086 21.7027V13.9439C29.3086 12.5533 25.9163 9.30273 24.0563 9.30273H22.0723V16.3884C22.0723 17.8499 20.8766 19.0456 19.4151 19.0456H8.47656C10.372 19.2847 11.8954 20.7373 12.2674 22.5884H18.5914C18.9988 20.5513 20.7968 19.0013 22.958 19.0013C25.1103 19.0013 26.9171 20.5513 27.3246 22.5884ZM23.5248 11.4816C28.0597 11.2602 27.8737 15.9456 27.8737 15.9456H23.5248V11.4816Z" fill="white"/>
<path d="M22.9522 26.1261C24.4295 26.1261 25.6271 24.9285 25.6271 23.4512C25.6271 21.9739 24.4295 20.7764 22.9522 20.7764C21.4749 20.7764 20.2773 21.9739 20.2773 23.4512C20.2773 24.9285 21.4749 26.1261 22.9522 26.1261Z" fill="white"/>
<path d="M7.89751 26.1261C9.3748 26.1261 10.5724 24.9285 10.5724 23.4512C10.5724 21.9739 9.3748 20.7764 7.89751 20.7764C6.42023 20.7764 5.22266 21.9739 5.22266 23.4512C5.22266 24.9285 6.42023 26.1261 7.89751 26.1261Z" fill="white"/>
</svg>
