<svg width="21" height="25" viewBox="0 0 21 25" fill="none" xmlns="http://www.w3.org/2000/svg">
<path d="M14.1237 0.416992H6.8737C5.27154 0.417633 3.7352 1.05437 2.6023 2.18726C1.46941 3.32016 0.832672 4.85651 0.832031 6.45866V18.542C0.834106 19.2526 1.04429 19.947 1.43662 20.5395C1.82895 21.1319 2.38624 21.5965 3.03966 21.8758L2.39441 22.521C2.1743 22.7489 2.05251 23.0542 2.05526 23.371C2.05801 23.6878 2.18509 23.9909 2.40913 24.2149C2.63316 24.4389 2.93623 24.566 3.25305 24.5688C3.56987 24.5715 3.8751 24.4497 4.10299 24.2296L6.16561 22.167H14.8318L16.8944 24.2296C17.1223 24.4497 17.4275 24.5715 17.7443 24.5688C18.0612 24.566 18.3642 24.4389 18.5883 24.2149C18.8123 23.9909 18.9394 23.6878 18.9421 23.371C18.9449 23.0542 18.8231 22.7489 18.603 22.521L17.9577 21.8758C18.6112 21.5965 19.1684 21.1319 19.5608 20.5395C19.9531 19.947 20.1633 19.2526 20.1654 18.542V6.45866C20.1647 4.85651 19.528 3.32016 18.3951 2.18726C17.2622 1.05437 15.7259 0.417633 14.1237 0.416992ZM5.66536 18.542C5.42638 18.542 5.19276 18.4711 4.99405 18.3384C4.79534 18.2056 4.64047 18.0169 4.54901 17.7961C4.45755 17.5753 4.43363 17.3323 4.48025 17.0979C4.52687 16.8635 4.64196 16.6482 4.81094 16.4792C4.97993 16.3102 5.19524 16.1952 5.42963 16.1485C5.66402 16.1019 5.90698 16.1258 6.12777 16.2173C6.34857 16.3088 6.53728 16.4636 6.67006 16.6623C6.80283 16.8611 6.8737 17.0947 6.8737 17.3337C6.87274 17.6538 6.74513 17.9606 6.51873 18.187C6.29233 18.4134 5.98554 18.541 5.66536 18.542ZM4.45703 11.292V6.45866C4.45894 5.81831 4.71417 5.20473 5.16697 4.75193C5.61977 4.29913 6.23335 4.0439 6.8737 4.04199H14.1237C14.7641 4.0439 15.3776 4.29913 15.8304 4.75193C16.2832 5.20473 16.5385 5.81831 16.5404 6.45866V11.292C16.5385 11.9323 16.2832 12.5459 15.8304 12.9987C15.3776 13.4515 14.7641 13.7067 14.1237 13.7087H6.8737C6.23335 13.7067 5.61977 13.4515 5.16697 12.9987C4.71417 12.5459 4.45894 11.9323 4.45703 11.292ZM15.332 18.542C15.093 18.542 14.8594 18.4711 14.6607 18.3384C14.462 18.2056 14.3071 18.0169 14.2157 17.7961C14.1242 17.5753 14.1003 17.3323 14.1469 17.0979C14.1935 16.8635 14.3086 16.6482 14.4776 16.4792C14.6466 16.3102 14.8619 16.1952 15.0963 16.1485C15.3307 16.1019 15.5736 16.1258 15.7944 16.2173C16.0152 16.3088 16.204 16.4636 16.3367 16.6623C16.4695 16.8611 16.5404 17.0947 16.5404 17.3337C16.5394 17.6538 16.4118 17.9606 16.1854 18.187C15.959 18.4134 15.6522 18.541 15.332 18.542Z" fill="white"/>
</svg>
