<svg width="90" height="90" viewBox="0 0 90 90" fill="none" xmlns="http://www.w3.org/2000/svg">
<circle cx="45" cy="45" r="45" fill="#E9FF8F"/>
<g clip-path="url(#clip0_580_4361)">
<path d="M55.5469 37.9581L54.2123 36.6663C53.6241 36.0969 52.6671 36.0969 52.0788 36.6663L40.8863 47.5008C40.8276 47.5577 40.7245 47.5576 40.6658 47.5008L37.9038 44.8273C37.3156 44.2579 36.3586 44.2579 35.7704 44.8273L34.4531 46.1024C34.1609 46.3852 34 46.7629 34 47.1661C34 47.5692 34.1609 47.9469 34.4531 48.2297L38.4376 52.0866L38.4391 52.088L39.7262 53.334C40.0203 53.6187 40.4066 53.761 40.7929 53.761C41.1792 53.761 41.5656 53.6186 41.8597 53.334L55.5469 40.0855C55.8391 39.8026 56 39.4249 56 39.0218C56 38.6188 55.8391 38.241 55.5469 37.9581Z" fill="black"/>
</g>
<defs>
<clipPath id="clip0_580_4361">
<rect width="22" height="22" fill="white" transform="translate(34 34)"/>
</clipPath>
</defs>
</svg>
