<svg width="19" height="26" viewBox="0 0 19 26" fill="none" xmlns="http://www.w3.org/2000/svg">
<path d="M9.5 0.5C4.33125 0.5 0.125 4.73542 0.125 9.94271C0.125 17.3417 8.61875 24.9813 8.98021 25.3021C9.12308 25.43 9.30805 25.5008 9.4998 25.501C9.69155 25.5012 9.87666 25.4307 10.0198 25.3031C10.3812 24.9813 18.875 17.3417 18.875 9.94271C18.875 4.73542 14.6687 0.5 9.5 0.5ZM9.5 15.0833C6.62812 15.0833 4.29167 12.7469 4.29167 9.875C4.29167 7.00313 6.62812 4.66667 9.5 4.66667C12.3719 4.66667 14.7083 7.00313 14.7083 9.875C14.7083 12.7469 12.3719 15.0833 9.5 15.0833Z" fill="white" fill-opacity="0.5"/>
</svg>
