<svg width="64" height="14" viewBox="0 0 64 14" fill="none" xmlns="http://www.w3.org/2000/svg">
<g opacity="0.3" clip-path="url(#clip0_580_3978)">
<mask id="mask0_580_3978" style="mask-type:luminance" maskUnits="userSpaceOnUse" x="41" y="0" width="23" height="14">
<path d="M63.8698 0.462891H41.6562V13.7266H63.8698V0.462891Z" fill="white"/>
</mask>
<g mask="url(#mask0_580_3978)">
<path fill-rule="evenodd" clip-rule="evenodd" d="M49.6758 12.2917H55.6211V1.87891H49.6758V12.2917Z" fill="black"/>
<path fill-rule="evenodd" clip-rule="evenodd" d="M50.0542 7.08518C50.0542 4.97266 51.0691 3.0912 52.6494 1.87877C51.4935 0.991934 50.0353 0.462891 48.4503 0.462891C44.698 0.462891 41.6562 3.42783 41.6562 7.08518C41.6562 10.7425 44.698 13.7074 48.4503 13.7074C50.0353 13.7074 51.4935 13.1784 52.6494 12.2916C51.0691 11.0789 50.0542 9.19768 50.0542 7.08518Z" fill="white"/>
<path fill-rule="evenodd" clip-rule="evenodd" d="M63.4295 11.1888V10.9318H63.3606L63.2815 11.1085L63.2022 10.9318H63.1334V11.1888H63.1819V10.9949L63.2562 11.1621H63.3066L63.381 10.9945V11.1888H63.4295ZM62.9933 11.1888V10.9756H63.0817V10.9322H62.857V10.9756H62.9451V11.1888H62.9933ZM63.6416 7.08518C63.6416 10.7425 60.5997 13.7074 56.8476 13.7074C55.2625 13.7074 53.8041 13.1784 52.6484 12.2916C54.2288 11.0792 55.2436 9.19768 55.2436 7.08518C55.2436 4.97285 54.2288 3.09139 52.6484 1.87877C53.8041 0.991934 55.2625 0.462891 56.8476 0.462891C60.5997 0.462891 63.6416 3.42783 63.6416 7.08518Z" fill="white"/>
</g>
<mask id="mask1_580_3978" style="mask-type:luminance" maskUnits="userSpaceOnUse" x="0" y="1" width="36" height="12">
<path d="M35.8638 1.41113H0.128906V12.78H35.8638V1.41113Z" fill="white"/>
</mask>
<g mask="url(#mask1_580_3978)">
<path d="M15.6135 12.6157H12.7188L14.5294 1.61035H17.424L15.6135 12.6157Z" fill="white"/>
<path d="M26.1094 1.87968C25.5384 1.657 24.6328 1.41113 23.5129 1.41113C20.6543 1.41113 18.6412 2.90965 18.6288 5.0521C18.6051 6.63278 20.0701 7.51073 21.1658 8.03778C22.2858 8.57631 22.6666 8.92788 22.6666 9.40791C22.6552 10.1452 21.7615 10.4851 20.9281 10.4851C19.7724 10.4851 19.1531 10.3099 18.2121 9.89969L17.8309 9.72383L17.4258 12.1943C18.1048 12.4983 19.3556 12.7682 20.6543 12.78C23.6916 12.78 25.6691 11.3047 25.6925 9.02157C25.7041 7.76874 24.9305 6.80877 23.2627 6.02435C22.2502 5.52079 21.6302 5.18125 21.6302 4.66603C21.6421 4.19764 22.1546 3.7179 23.2975 3.7179C24.2386 3.69439 24.93 3.91677 25.4538 4.13928L25.7157 4.25615L26.1094 1.87968Z" fill="white"/>
<path d="M29.9553 8.71692C30.1936 8.08469 31.1109 5.6377 31.1109 5.6377C31.099 5.66119 31.3489 4.99379 31.4918 4.58406L31.6942 5.53235C31.6942 5.53235 32.2423 8.1667 32.3613 8.71692C31.909 8.71692 30.527 8.71692 29.9553 8.71692ZM33.5285 1.61035H31.2894C30.5989 1.61035 30.0743 1.80922 29.7764 2.52347L25.4766 12.6156H28.5139C28.5139 12.6156 29.014 11.2573 29.1215 10.9647C29.4547 10.9647 32.4095 10.9647 32.8381 10.9647C32.9212 11.351 33.1836 12.6156 33.1836 12.6156H35.8638L33.5285 1.61035Z" fill="white"/>
<path d="M10.3032 1.61035L7.46826 9.11493L7.15847 7.59294C6.63435 5.83673 4.9906 3.92863 3.15625 2.97988L5.75295 12.6041H8.81407L13.3642 1.61035H10.3032Z" fill="white"/>
<path d="M4.83397 1.61133H0.176553L0.128906 1.83369C3.76199 2.74697 6.1681 4.94839 7.15666 7.59437L6.1442 2.53643C5.97751 1.83354 5.46526 1.63452 4.83397 1.61133Z" fill="#ACACAC"/>
</g>
</g>
<defs>
<clipPath id="clip0_580_3978">
<rect width="64" height="14" fill="white"/>
</clipPath>
</defs>
</svg>
