<svg width="69" height="19" viewBox="0 0 69 19" fill="none" xmlns="http://www.w3.org/2000/svg">
<g opacity="0.3" clip-path="url(#clip0_580_4006)">
<path d="M25.8065 4.68164H21.9896C21.8632 4.68156 21.741 4.7282 21.6449 4.81315C21.5488 4.8981 21.4852 5.01579 21.4655 5.145L19.9218 15.277C19.9147 15.3241 19.9175 15.3721 19.9301 15.4179C19.9426 15.4637 19.9646 15.5061 19.9946 15.5422C20.0245 15.5783 20.0616 15.6073 20.1034 15.6272C20.1452 15.647 20.1906 15.6573 20.2366 15.6572H22.0588C22.1852 15.6573 22.3075 15.6105 22.4036 15.5255C22.4997 15.4404 22.5633 15.3226 22.5828 15.1933L22.9992 12.4605C23.0187 12.3313 23.0822 12.2135 23.1782 12.1285C23.2742 12.0434 23.3964 11.9966 23.5227 11.9966H24.731C27.2453 11.9966 28.6964 10.7371 29.0753 8.24117C29.2461 7.14922 29.0826 6.29126 28.5887 5.6904C28.0462 5.0306 27.084 4.68164 25.8065 4.68164ZM26.2468 8.38214C26.0381 9.79995 24.9916 9.79995 23.9798 9.79995H23.4038L23.8079 7.15211C23.8197 7.07464 23.8579 7.00409 23.9155 6.95315C23.9731 6.9022 24.0463 6.87421 24.1221 6.87421H24.3861C25.0754 6.87421 25.7256 6.87421 26.0615 7.28095C26.2619 7.5236 26.3233 7.88412 26.2468 8.38214ZM37.2159 8.3365H35.3881C35.3123 8.3365 35.2391 8.36449 35.1815 8.41544C35.1239 8.46638 35.0857 8.53693 35.0739 8.6144L34.993 9.14362L34.8651 8.95181C34.4694 8.3573 33.5871 8.15855 32.7064 8.15855C30.6866 8.15855 28.9615 9.74217 28.6255 11.9636C28.4508 13.0718 28.6992 14.1314 29.3064 14.8703C29.8634 15.5497 30.6604 15.8328 31.6086 15.8328C33.236 15.8328 34.1385 14.7496 34.1385 14.7496L34.057 15.2753C34.0497 15.3223 34.0524 15.3704 34.0648 15.4162C34.0772 15.4621 34.0991 15.5046 34.1289 15.5408C34.1587 15.5771 34.1958 15.6062 34.2375 15.6262C34.2793 15.6462 34.3247 15.6566 34.3707 15.6566H36.0171C36.1435 15.6567 36.2658 15.61 36.3619 15.5249C36.458 15.4398 36.5216 15.322 36.5411 15.1927L37.529 8.71666C37.5363 8.66976 37.5336 8.62178 37.5212 8.57605C37.5088 8.53031 37.487 8.4879 37.4572 8.45176C37.4275 8.41561 37.3905 8.38658 37.3488 8.36668C37.3071 8.34678 37.2618 8.33649 37.2159 8.3365ZM34.6681 12.0191C34.4918 13.1001 33.663 13.8257 32.6059 13.8257C32.0752 13.8257 31.651 13.6495 31.3786 13.3156C31.1085 12.9839 31.0058 12.5119 31.0918 11.9862C31.2564 10.9144 32.0992 10.1651 33.14 10.1651C33.6591 10.1651 34.081 10.3436 34.3589 10.6804C34.6374 11.0207 34.7479 11.4957 34.6681 12.0191ZM46.9504 8.3365H45.1137C45.0271 8.33664 44.9418 8.35866 44.8652 8.40064C44.7887 8.44263 44.7232 8.50331 44.6745 8.57742L42.1412 12.4403L41.0674 8.72822C41.0344 8.615 40.9671 8.51578 40.8755 8.44523C40.7838 8.37468 40.6726 8.33656 40.5584 8.3365H38.7535C38.7028 8.33636 38.6529 8.34875 38.6078 8.37264C38.5626 8.39653 38.5237 8.43122 38.4942 8.47384C38.4646 8.51645 38.4454 8.56575 38.4379 8.61764C38.4305 8.66952 38.4352 8.72249 38.4515 8.77213L40.4747 14.9183L38.5727 17.6978C38.5389 17.7471 38.5188 17.8051 38.5147 17.8654C38.5106 17.9256 38.5226 17.9859 38.5494 18.0396C38.5762 18.0933 38.6168 18.1384 38.6666 18.1698C38.7165 18.2012 38.7738 18.2178 38.8322 18.2178H40.6667C40.7523 18.2179 40.8367 18.1965 40.9127 18.1555C40.9886 18.1144 41.0537 18.0549 41.1026 17.9821L47.2116 8.85359C47.2447 8.8042 47.2642 8.74638 47.2678 8.68638C47.2714 8.62638 47.2591 8.56649 47.2322 8.51322C47.2053 8.45995 47.1648 8.41532 47.1151 8.38417C47.0655 8.35301 47.0085 8.33653 46.9504 8.3365Z" fill="white"/>
<path d="M53.0292 4.68124H49.2118C49.0855 4.6813 48.9634 4.728 48.8674 4.81294C48.7715 4.89788 48.7079 5.01549 48.6883 5.1446L47.1445 15.2766C47.1374 15.3236 47.1401 15.3716 47.1526 15.4173C47.165 15.463 47.1869 15.5054 47.2167 15.5416C47.2465 15.5777 47.2836 15.6067 47.3252 15.6266C47.3669 15.6465 47.4123 15.6568 47.4582 15.6568H49.4172C49.5055 15.6567 49.591 15.6239 49.6581 15.5644C49.7252 15.5048 49.7696 15.4225 49.7833 15.3321L50.2214 12.4601C50.2409 12.3309 50.3044 12.2131 50.4004 12.1281C50.4964 12.043 50.6185 11.9962 50.7449 11.9962H51.9526C54.4675 11.9962 55.918 10.7367 56.2975 8.24077C56.4689 7.14882 56.3042 6.29086 55.8103 5.69C55.2684 5.0302 54.3067 4.68124 53.0292 4.68124ZM53.4696 8.38174C53.2614 9.79955 52.215 9.79955 51.2025 9.79955H50.6271L51.0318 7.15171C51.0434 7.07424 51.0814 7.00363 51.1389 6.95266C51.1964 6.90168 51.2697 6.87371 51.3454 6.87381H51.6094C52.2981 6.87381 52.9489 6.87381 53.2848 7.28055C53.4852 7.52321 53.546 7.88372 53.4696 8.38174ZM64.4381 8.3361H62.6114C62.5356 8.33589 62.4623 8.36381 62.4048 8.41481C62.3472 8.4658 62.3092 8.53648 62.2977 8.614L62.2168 9.14322L62.0885 8.95141C61.6928 8.3569 60.8109 8.15815 59.9302 8.15815C57.9105 8.15815 56.1859 9.74177 55.8499 11.9632C55.6758 13.0714 55.923 14.131 56.5302 14.8699C57.0884 15.5493 57.8842 15.8324 58.8324 15.8324C60.4599 15.8324 61.3624 14.7492 61.3624 14.7492L61.2809 15.2749C61.2736 15.322 61.2763 15.3702 61.2888 15.4161C61.3012 15.462 61.3232 15.5046 61.3532 15.5408C61.3831 15.5771 61.4203 15.6062 61.4621 15.6261C61.504 15.6461 61.5496 15.6563 61.5956 15.6562H63.2415C63.3679 15.6561 63.49 15.6094 63.586 15.5243C63.682 15.4392 63.7455 15.3215 63.765 15.1923L64.7534 8.71626C64.7604 8.66921 64.7575 8.62115 64.7449 8.57538C64.7323 8.5296 64.7102 8.4872 64.6802 8.45109C64.6503 8.41497 64.6131 8.38599 64.5713 8.36614C64.5295 8.34629 64.4841 8.33605 64.4381 8.3361ZM61.8903 12.0187C61.7151 13.0997 60.8852 13.8253 59.8281 13.8253C59.2985 13.8253 58.8732 13.6491 58.6008 13.3152C58.3307 12.9835 58.2291 12.5115 58.314 11.9858C58.4797 10.914 59.3213 10.1647 60.3622 10.1647C60.8813 10.1647 61.3032 10.3432 61.5811 10.68C61.8607 11.0203 61.9713 11.4953 61.8903 12.0187ZM66.5929 4.95914L65.0263 15.2766C65.0192 15.3236 65.0219 15.3716 65.0344 15.4173C65.0468 15.463 65.0687 15.5054 65.0985 15.5416C65.1283 15.5777 65.1654 15.6067 65.207 15.6266C65.2487 15.6465 65.2941 15.6568 65.34 15.6568H66.915C67.1767 15.6568 67.3989 15.4604 67.439 15.1929L68.9839 5.0614C68.9911 5.01444 68.9883 4.96643 68.9759 4.92066C68.9634 4.8749 68.9415 4.83247 68.9117 4.79629C68.8819 4.76011 68.8449 4.73105 68.8032 4.71109C68.7615 4.69113 68.7162 4.68075 68.6702 4.68066H66.9066C66.8309 4.68094 66.7577 4.70912 66.7003 4.76015C66.6428 4.81117 66.6047 4.88172 66.5929 4.95914Z" fill="white"/>
<path d="M4.07244 17.6262L4.36433 15.7069L3.71413 15.6913H0.609375L2.76702 1.52886C2.77345 1.48559 2.79468 1.44615 2.82685 1.41773C2.85901 1.3893 2.89998 1.3738 2.94227 1.37403H8.17733C9.91528 1.37403 11.1147 1.74841 11.7409 2.48735C12.0344 2.83401 12.2214 3.19626 12.3118 3.59491C12.4067 4.0132 12.4083 4.51295 12.3157 5.12248L12.309 5.16697V5.55753L12.6026 5.7297C12.8267 5.84724 13.0281 6.00624 13.197 6.19884C13.4481 6.49522 13.6105 6.87192 13.6792 7.31852C13.75 7.77783 13.7266 8.32439 13.6105 8.94316C13.4766 9.65495 13.26 10.2749 12.9676 10.7821C12.7095 11.2366 12.3626 11.6302 11.949 11.9376C11.5606 12.2231 11.099 12.4397 10.5772 12.5784C10.0715 12.7147 9.49502 12.7835 8.86269 12.7835H8.45527C8.16393 12.7835 7.88097 12.8921 7.65885 13.0868C7.43703 13.2836 7.28989 13.5555 7.24361 13.8541L7.21292 14.0268L6.69722 17.4095L6.67378 17.5338C6.66764 17.573 6.65704 17.5927 6.64141 17.606C6.62628 17.6188 6.60739 17.6259 6.58783 17.6262H4.07244Z" fill="white"/>
<path d="M12.8783 5.21191C12.8626 5.31533 12.8448 5.42106 12.8247 5.52968C12.1343 9.19898 9.77239 10.4666 6.75581 10.4666H5.2199C4.85099 10.4666 4.54012 10.7439 4.48264 11.1206L3.69626 16.2834L3.47358 17.7468C3.46471 17.8049 3.46809 17.8642 3.4835 17.9208C3.49891 17.9774 3.52598 18.0298 3.56285 18.0745C3.59971 18.1192 3.6455 18.1551 3.69705 18.1797C3.7486 18.2043 3.80469 18.2171 3.86146 18.2171H6.58559C6.90818 18.2171 7.18221 17.9745 7.233 17.6451L7.25979 17.5019L7.77269 14.1324L7.80562 13.9475C7.85585 13.6171 8.13044 13.3744 8.45302 13.3744H8.86044C11.4997 13.3744 13.5659 12.2651 14.1697 9.05512C14.422 7.71416 14.2914 6.59448 13.6239 5.807C13.4123 5.5634 13.1597 5.36174 12.8783 5.21191Z" fill="white"/>
<path d="M12.1578 4.91395C11.9374 4.84794 11.7131 4.79642 11.4864 4.75969C11.0384 4.68842 10.5857 4.65423 10.1324 4.65743H6.02922C5.87306 4.65731 5.72202 4.71502 5.60338 4.82013C5.48475 4.92525 5.40635 5.07083 5.38237 5.23056L4.50949 10.9538L4.48438 11.1207C4.51157 10.9386 4.60085 10.7725 4.73608 10.6525C4.87131 10.5325 5.04355 10.4666 5.22164 10.4667H6.75755C9.77413 10.4667 12.136 9.19857 12.8264 5.52984C12.8471 5.42122 12.8644 5.31549 12.88 5.21207C12.6978 5.11318 12.508 5.03027 12.3124 4.96422C12.2611 4.94661 12.2096 4.92985 12.1578 4.91395Z" fill="#9A9A9A"/>
<path d="M5.38123 5.23034C5.40501 5.07056 5.48336 4.92491 5.60206 4.81985C5.72075 4.71479 5.87191 4.65729 6.02808 4.65779H10.1313C10.6174 4.65779 11.0711 4.69072 11.4853 4.76005C11.7655 4.80564 12.0419 4.87383 12.3118 4.964C12.5155 5.03391 12.7047 5.11652 12.8794 5.21185C13.0848 3.85587 12.8777 2.93262 12.1695 2.09661C11.3887 1.17625 9.97949 0.782227 8.17624 0.782227H2.94118C2.57283 0.782227 2.25861 1.05955 2.20169 1.43682L0.0211557 15.7449C0.0109991 15.8113 0.0148634 15.8792 0.0324825 15.9439C0.0501017 16.0087 0.0810577 16.0687 0.123221 16.1199C0.165384 16.171 0.217755 16.2121 0.276729 16.2404C0.335704 16.2686 0.399883 16.2832 0.464852 16.2833H3.69686L4.50835 10.9536L5.38123 5.23034Z" fill="white"/>
</g>
<defs>
<clipPath id="clip0_580_4006">
<rect width="69" height="19" fill="white"/>
</clipPath>
</defs>
</svg>
