<svg width="40" height="16" viewBox="0 0 40 16" fill="none" xmlns="http://www.w3.org/2000/svg">
<path d="M7.31183 2.0628C6.84308 2.60323 6.09308 3.02949 5.34308 2.9686C5.24933 2.23787 5.61651 1.46147 6.0462 0.98192C6.51495 0.426261 7.33525 0.0304472 7.99933 0C8.07747 0.76118 7.77275 1.50713 7.31183 2.0628ZM7.99154 3.11323C6.90558 3.05233 5.97588 3.71456 5.46026 3.71456C4.93683 3.71456 4.14776 3.14367 3.28838 3.15889C2.1712 3.17412 1.13213 3.79067 0.561824 4.7726C-0.610051 6.73647 0.257137 9.64413 1.38995 11.2426C1.94463 12.0343 2.6087 12.902 3.4837 12.8715C4.31183 12.8411 4.63995 12.3463 5.63995 12.3463C6.64776 12.3463 6.93683 12.8715 7.81183 12.8563C8.71804 12.8411 9.2884 12.0647 9.84304 11.2731C10.4759 10.3749 10.7337 9.49953 10.7493 9.45387C10.7337 9.4386 8.99933 8.7916 8.98368 6.843C8.96804 5.21408 10.3509 4.43768 10.4134 4.39201C9.63211 3.26546 8.4134 3.14367 7.99154 3.11323ZM14.265 0.905807V12.7726H16.1555V8.71553H18.7728C21.1634 8.71553 22.843 7.117 22.843 4.80305C22.843 2.48906 21.1946 0.905807 18.8353 0.905807H14.265ZM16.1555 2.45861H18.3353C19.9759 2.45861 20.9134 3.31113 20.9134 4.81065C20.9134 6.31018 19.9759 7.17033 18.3275 7.17033H16.1555V2.45861ZM26.2962 12.8639C27.4837 12.8639 28.5853 12.2778 29.0853 11.3492H29.1243V12.7726H30.8743V6.86587C30.8743 5.15319 29.468 4.04948 27.304 4.04948C25.2962 4.04948 23.8118 5.16841 23.7571 6.706H25.4603C25.6009 5.97526 26.2962 5.49572 27.2493 5.49572C28.4055 5.49572 29.054 6.02093 29.054 6.9876V7.64227L26.6946 7.77927C24.4993 7.90867 23.3118 8.784 23.3118 10.3064C23.3118 11.8439 24.5384 12.8639 26.2962 12.8639ZM26.804 11.4557C25.7962 11.4557 25.1555 10.9838 25.1555 10.2607C25.1555 9.51473 25.7728 9.08087 26.9525 9.0124L29.054 8.883V9.5528C29.054 10.6641 28.0853 11.4557 26.804 11.4557ZM33.2103 16C35.054 16 35.9212 15.3149 36.679 13.2369L39.9993 4.16365H38.0775L35.8509 11.1741H35.8118L33.5853 4.16365H31.6087L34.8118 12.8031L34.64 13.3283C34.3509 14.2189 33.8821 14.5614 33.0462 14.5614C32.8978 14.5614 32.6087 14.5461 32.4915 14.5309V15.9543C32.6009 15.9848 33.0696 16 33.2103 16Z" fill="white" fill-opacity=".3"/>
</svg>
