<svg width="31" height="31" viewBox="0 0 31 31" fill="none" xmlns="http://www.w3.org/2000/svg">
<path d="M26.1403 18.075L24.7278 15.725C24.4153 15.2125 24.1403 14.225 24.1403 13.625V11.2875C24.1403 6.75 20.4528 3.0625 15.9278 3.0625C11.3903 3.075 7.70284 6.75 7.70284 11.2875V13.6125C7.70284 14.2125 7.42784 15.2 7.12784 15.7125L5.71534 18.0625C5.17784 18.975 5.05284 20.0125 5.39034 20.9125C5.72784 21.825 6.49034 22.55 7.49034 22.875C8.84034 23.325 10.2028 23.65 11.5903 23.8875C11.7278 23.9125 11.8653 23.925 12.0028 23.95C12.1778 23.975 12.3653 24 12.5528 24.025C12.8778 24.075 13.2028 24.1125 13.5403 24.1375C14.3278 24.2125 15.1278 24.25 15.9278 24.25C16.7153 24.25 17.5028 24.2125 18.2778 24.1375C18.5653 24.1125 18.8528 24.0875 19.1278 24.05C19.3528 24.025 19.5778 24 19.8028 23.9625C19.9403 23.95 20.0778 23.925 20.2153 23.9C21.6153 23.675 23.0028 23.325 24.3528 22.875C25.3153 22.55 26.0528 21.825 26.4028 20.9C26.7528 19.9625 26.6528 18.9375 26.1403 18.075ZM16.8403 13C16.8403 13.525 16.4153 13.95 15.8903 13.95C15.3653 13.95 14.9403 13.525 14.9403 13V9.125C14.9403 8.6 15.3653 8.175 15.8903 8.175C16.4153 8.175 16.8403 8.6 16.8403 9.125V13Z" fill="grey" fill-opacity="1"/>
<path d="M19.4414 25.5125C18.9164 26.9625 17.5289 28 15.9039 28C14.9164 28 13.9414 27.6 13.2539 26.8875C12.8539 26.5125 12.5539 26.0125 12.3789 25.5C12.5414 25.525 12.7039 25.5375 12.8789 25.5625C13.1664 25.6 13.4664 25.6375 13.7664 25.6625C14.4789 25.725 15.2039 25.7625 15.9289 25.7625C16.6414 25.7625 17.3539 25.725 18.0539 25.6625C18.3164 25.6375 18.5789 25.625 18.8289 25.5875C19.0289 25.5625 19.2289 25.5375 19.4414 25.5125Z" fill="white" fill-opacity="0.5"/>
</svg>
