<svg width="33" height="32" viewBox="0 0 33 32" fill="none" xmlns="http://www.w3.org/2000/svg">
<g filter="url(#filter0_b_89_1530)">
<path d="M25.238 19.575L23.8255 17.225C23.513 16.7125 23.238 15.725 23.238 15.125V12.7875C23.238 8.25 19.5505 4.5625 15.0255 4.5625C10.488 4.575 6.8005 8.25 6.8005 12.7875V15.1125C6.8005 15.7125 6.5255 16.7 6.2255 17.2125L4.813 19.5625C4.2755 20.475 4.1505 21.5125 4.488 22.4125C4.8255 23.325 5.588 24.05 6.588 24.375C7.938 24.825 9.3005 25.15 10.688 25.3875C10.8255 25.4125 10.963 25.425 11.1005 25.45C11.2755 25.475 11.463 25.5 11.6505 25.525C11.9755 25.575 12.3005 25.6125 12.638 25.6375C13.4255 25.7125 14.2255 25.75 15.0255 25.75C15.813 25.75 16.6005 25.7125 17.3755 25.6375C17.663 25.6125 17.9505 25.5875 18.2255 25.55C18.4505 25.525 18.6755 25.5 18.9005 25.4625C19.038 25.45 19.1755 25.425 19.313 25.4C20.713 25.175 22.1005 24.825 23.4505 24.375C24.413 24.05 25.1505 23.325 25.5005 22.4C25.8505 21.4625 25.7505 20.4375 25.238 19.575ZM15.938 14.5C15.938 15.025 15.513 15.45 14.988 15.45C14.463 15.45 14.038 15.025 14.038 14.5V10.625C14.038 10.1 14.463 9.675 14.988 9.675C15.513 9.675 15.938 10.1 15.938 10.625V14.5Z" fill="white" fill-opacity="0.5"/>
<path d="M18.5391 27.0125C18.0141 28.4625 16.6266 29.5 15.0016 29.5C14.0141 29.5 13.0391 29.1 12.3516 28.3875C11.9516 28.0125 11.6516 27.5125 11.4766 27C11.6391 27.025 11.8016 27.0375 11.9766 27.0625C12.2641 27.1 12.5641 27.1375 12.8641 27.1625C13.5766 27.225 14.3016 27.2625 15.0266 27.2625C15.7391 27.2625 16.4516 27.225 17.1516 27.1625C17.4141 27.1375 17.6766 27.125 17.9266 27.0875C18.1266 27.0625 18.3266 27.0375 18.5391 27.0125Z" fill="white" fill-opacity="0.5"/>
<rect width="6" height="6" rx="3" transform="matrix(-1 0 0 1 33 0)" fill="#FF2E00"/>
</g>
<defs>
<filter id="filter0_b_89_1530" x="-19.6992" y="-24" width="76.6992" height="77.5" filterUnits="userSpaceOnUse" color-interpolation-filters="sRGB">
<feFlood flood-opacity="0" result="BackgroundImageFix"/>
<feGaussianBlur in="BackgroundImageFix" stdDeviation="12"/>
<feComposite in2="SourceAlpha" operator="in" result="effect1_backgroundBlur_89_1530"/>
<feBlend mode="normal" in="SourceGraphic" in2="effect1_backgroundBlur_89_1530" result="shape"/>
</filter>
</defs>
</svg>
