<svg width="28" height="29" viewBox="0 0 28 29" fill="none" xmlns="http://www.w3.org/2000/svg">
<path d="M18.8306 4.38185L8.29563 7.88185C1.21396 10.2502 1.21396 14.1118 8.29563 16.4685L11.4223 17.5069L12.4606 20.6335C14.8173 27.7152 18.6906 27.7152 21.0473 20.6335L24.559 10.1102C26.1223 5.38518 23.5556 2.80685 18.8306 4.38185ZM19.204 10.6585L14.7706 15.1152C14.5956 15.2902 14.374 15.3719 14.1523 15.3719C13.9306 15.3719 13.709 15.2902 13.534 15.1152C13.1956 14.7768 13.1956 14.2169 13.534 13.8785L17.9673 9.42185C18.3056 9.08352 18.8656 9.08352 19.204 9.42185C19.5423 9.76018 19.5423 10.3202 19.204 10.6585Z" fill="white"/>
</svg>
