<svg width="32" height="33" viewBox="0 0 32 33" fill="none" xmlns="http://www.w3.org/2000/svg">
<path d="M21.3131 8.86119L22.8994 12.0337C23.1131 12.4724 23.6869 12.8887 24.1706 12.9787L27.0394 13.4512C28.8731 13.7549 29.3006 15.0824 27.9844 16.4099L25.7456 18.6487C25.3744 19.0199 25.1606 19.7512 25.2844 20.2799L25.9256 23.0474C26.4319 25.2299 25.2619 26.0849 23.3381 24.9374L20.6494 23.3399C20.1656 23.0474 19.3556 23.0474 18.8719 23.3399L16.1831 24.9374C14.2594 26.0737 13.0894 25.2299 13.5956 23.0474L14.2369 20.2799C14.3381 19.7399 14.1244 19.0087 13.7531 18.6374L11.5144 16.3987C10.1981 15.0824 10.6256 13.7549 12.4594 13.4399L15.3281 12.9674C15.8119 12.8887 16.3856 12.4612 16.5994 12.0224L18.1856 8.84994C19.0519 7.13994 20.4469 7.13995 21.3131 8.86119Z" fill="white"/>
<path d="M13 9.46875H6.25C5.78875 9.46875 5.40625 9.08625 5.40625 8.625C5.40625 8.16375 5.78875 7.78125 6.25 7.78125H13C13.4613 7.78125 13.8438 8.16375 13.8438 8.625C13.8438 9.08625 13.4613 9.46875 13 9.46875Z" fill="white"/>
<path d="M9.625 25.2188H6.25C5.78875 25.2188 5.40625 24.8362 5.40625 24.375C5.40625 23.9137 5.78875 23.5312 6.25 23.5312H9.625C10.0862 23.5312 10.4688 23.9137 10.4688 24.375C10.4688 24.8362 10.0862 25.2188 9.625 25.2188Z" fill="white"/>
<path d="M7.375 17.3438H6.25C5.78875 17.3438 5.40625 16.9612 5.40625 16.5C5.40625 16.0387 5.78875 15.6562 6.25 15.6562H7.375C7.83625 15.6562 8.21875 16.0387 8.21875 16.5C8.21875 16.9612 7.83625 17.3438 7.375 17.3438Z" fill="white"/>
</svg>
