<svg width="65" height="43" viewBox="0 0 65 43" fill="none" xmlns="http://www.w3.org/2000/svg">
<path fill-rule="evenodd" clip-rule="evenodd" d="M22.0996 2C11.3301 2 2.59961 10.7304 2.59961 21.5C2.59961 32.2696 11.33 41 22.0996 41H42.8996C53.6692 41 62.3996 32.2696 62.3996 21.5C62.3996 10.7304 53.6692 2 42.8996 2H22.0996ZM40.584 19.6168C40.3517 17.7472 40.0317 16.1836 37.2663 15.9093V14.0467C37.2663 12.0603 35.9216 10.6667 34.0049 10.6667H30.9944C29.0777 10.6667 27.733 12.0603 27.733 14.0467V15.9087C24.9621 16.1813 24.6426 17.7459 24.4199 19.6168L23.4596 27.5846C23.1502 30.198 23.9611 32.3333 27.706 32.3333H37.2872C40.6587 32.3333 41.651 30.6017 41.5976 28.3495C41.5869 28.0626 41.3522 27.8502 41.0641 27.8502H28.2288C27.7914 27.8502 27.4286 27.4889 27.4286 27.0534C27.4286 26.6072 27.7914 26.2566 28.2288 26.2566H40.7761C41.0961 26.2566 41.3415 25.9804 41.3095 25.6617L40.584 19.6168ZM35.761 14.0467V15.8667H29.2382V14.0467C29.2382 12.9235 29.9106 12.2267 30.9944 12.2267H34.0049C35.0887 12.2267 35.761 12.9235 35.761 14.0467Z" fill="white"/>
<rect x="1.59961" y="1" width="61.8" height="41" rx="20.5" stroke="url(#paint0_linear_89_1541)" stroke-width="2"/>
<defs>
<linearGradient id="paint0_linear_89_1541" x1="2.59961" y1="8.88235" x2="67.7007" y2="41.1324" gradientUnits="userSpaceOnUse">
<stop stop-color="white"/>
<stop offset="1" stop-color="white" stop-opacity="0"/>
</linearGradient>
</defs>
</svg>
